<svg xmlns="http://www.w3.org/2000/svg" xmlns:xlink="http://www.w3.org/1999/xlink" width="2000" zoomAndPan="magnify" viewBox="0 0 1500 449.999984" height="600" preserveAspectRatio="xMidYMid meet" version="1.0"><defs><g/></defs><rect x="-150" width="1800" fill="#ffffff" y="-44.999998" height="539.99998" fill-opacity="1"/><rect x="-150" width="1800" fill="#ffffff" y="-44.999998" height="539.99998" fill-opacity="1"/><g fill="#cf0b75" fill-opacity="1"><g transform="translate(270.325864, 280.466609)"><g><path d="M 8.671875 -109.765625 C 8.671875 -62.390625 101.6875 -74.671875 101.6875 -31.203125 C 101.6875 -15.171875 85.078125 0.28125 63.984375 0.28125 C 29.609375 0.28125 10.6875 -34.09375 10.6875 -34.09375 L 9.25 -34.09375 L 9.25 -14.734375 C 19.9375 -6.78125 36.828125 2.890625 55.890625 2.890625 C 89.265625 2.890625 110.0625 -17.046875 110.0625 -37.125 C 110.0625 -87.671875 18.78125 -73.65625 18.78125 -113.234375 C 18.78125 -129.265625 33.515625 -145.59375 60.375 -145.59375 C 91.28125 -145.59375 100.09375 -121.328125 100.09375 -121.328125 L 101.546875 -121.328125 L 101.546875 -140.6875 C 90.421875 -144.4375 78.140625 -147.328125 60.375 -147.328125 C 27.015625 -147.328125 8.671875 -129.84375 8.671875 -109.765625 Z M 8.671875 -109.765625 "/></g></g></g><g fill="#cf0b75" fill-opacity="1"><g transform="translate(432.381629, 280.466609)"><g><path d="M 4.328125 -25.28125 C 4.328125 -10.25 13.859375 2.890625 30.625 2.890625 C 59.359375 2.890625 76.265625 -22.53125 76.265625 -57.625 C 76.265625 -64.5625 75.96875 -70.34375 75.390625 -74.96875 L 93.3125 -27.734375 C 98.796875 -13.140625 99.515625 -1.4375 79.15625 -1.4375 L 79.15625 0 L 126.53125 0 L 126.53125 -1.4375 C 117.71875 -1.4375 113.09375 -9.390625 106.734375 -25.28125 L 60.515625 -147.328125 L 59.078125 -147.328125 C 49.96875 -123.34375 44.625 -109.046875 35.828125 -85.796875 C 34.375 -82.046875 35.09375 -78.140625 39.140625 -78.140625 C 47.375 -78.140625 51.703125 -93.3125 58.640625 -93.3125 C 60.515625 -93.3125 62.109375 -92.15625 62.109375 -89.40625 C 62.109375 -74.390625 4.328125 -60.8125 4.328125 -25.28125 Z M 16.609375 -28.015625 C 16.609375 -63.703125 63.703125 -69.765625 63.703125 -89.125 C 63.703125 -92.875 61.671875 -94.75 58.9375 -94.75 C 51.28125 -94.75 45.9375 -79.578125 39.28125 -79.578125 C 36.96875 -79.578125 35.828125 -81.3125 37.703125 -86.375 L 54.3125 -130.578125 L 71.78125 -84.5 C 74.390625 -75.96875 74.8125 -68.03125 74.8125 -57.34375 C 74.8125 -33.65625 63.40625 -4.046875 39.28125 -4.046875 C 25.125 -4.046875 16.609375 -14.4375 16.609375 -28.015625 Z M 16.609375 -28.015625 "/></g></g></g><g fill="#cf0b75" fill-opacity="1"><g transform="translate(602.236815, 280.466609)"><g><path d="M 4.328125 -144.4375 L 4.328125 -124.9375 L 5.78125 -124.9375 C 5.78125 -125.375 5.640625 -124.9375 5.640625 -125.515625 C 5.640625 -135.1875 23.828125 -143 48.671875 -143 L 48.671875 -40.15625 C 48.671875 -11.703125 47.8125 -1.4375 35.390625 -1.4375 L 35.390625 0 L 73.078125 0 L 73.078125 -1.4375 C 60.65625 -1.4375 60.953125 -11.703125 60.953125 -40.15625 L 60.953125 -143 C 85.796875 -143 104 -135.1875 104 -125.515625 C 104 -124.9375 103.84375 -125.375 103.84375 -124.9375 L 105.296875 -124.9375 L 105.296875 -144.4375 Z M 4.328125 -144.4375 "/></g></g></g><g fill="#cf0b75" fill-opacity="1"><g transform="translate(755.193273, 280.466609)"><g><path d="M 4.328125 -143 C 16.75 -143 17.625 -132.734375 17.625 -104.28125 L 17.625 -40.15625 C 17.625 -10.984375 39.859375 2.890625 66.4375 2.890625 C 93.015625 2.890625 114.6875 -11.265625 114.6875 -40.15625 L 114.6875 -104.28125 C 114.6875 -132.734375 115.546875 -143 127.96875 -143 L 127.96875 -144.4375 L 88.96875 -144.4375 L 88.96875 -143 C 101.390625 -143 102.265625 -132.734375 102.265625 -104.28125 L 102.265625 -40.15625 C 102.265625 -12.28125 86.953125 1.4375 66.4375 1.4375 C 45.9375 1.4375 30.046875 -12.125 30.046875 -40.15625 L 30.046875 -104.28125 C 30.046875 -132.734375 30.90625 -143 43.328125 -143 L 43.328125 -144.4375 L 4.328125 -144.4375 Z M 4.328125 -143 "/></g></g></g><g fill="#cf0b75" fill-opacity="1"><g transform="translate(930.825785, 280.466609)"><g><path d="M 4.328125 0 L 43.1875 0 L 43.1875 -1.4375 C 30.765625 -1.4375 29.90625 -11.703125 29.90625 -40.15625 L 29.90625 -140.6875 C 38.703125 -143.859375 45.640625 -145.296875 56.328125 -145.296875 C 83.203125 -145.296875 100.09375 -130.578125 100.09375 -106.59375 C 100.09375 -89.265625 88.390625 -71.5 70.34375 -71.5 C 56.90625 -71.5 50.265625 -79.734375 41.75 -79.734375 C 39.140625 -79.734375 36.6875 -78.28125 36.6875 -74.8125 C 36.6875 -65 52 -64.421875 66.015625 -43.328125 C 88.828125 -9.09375 92.875 0 99.515625 0 L 121.609375 0 L 121.609375 -1.4375 C 105.15625 -1.4375 91.71875 -27.15625 80.3125 -44.921875 C 68.609375 -63.125 38.125 -65.140625 38.125 -74.53125 C 38.125 -77.859375 40.59375 -78.28125 42.3125 -78.28125 C 48.390625 -78.28125 57.625 -69.046875 71.203125 -69.046875 C 96.34375 -69.046875 112.515625 -86.953125 112.515625 -106.734375 C 112.515625 -130.28125 95.328125 -147.328125 64.5625 -147.328125 C 47.8125 -147.328125 37.546875 -144.4375 21.671875 -144.4375 L 4.328125 -144.4375 L 4.328125 -143 C 16.75 -143 17.625 -132.734375 17.625 -104.28125 L 17.625 -40.15625 C 17.625 -11.703125 16.75 -1.4375 4.328125 -1.4375 Z M 4.328125 0 "/></g></g></g><g fill="#cf0b75" fill-opacity="1"><g transform="translate(1100.103209, 280.466609)"><g><path d="M 4.328125 -144.4375 L 4.328125 -143 C 16.75 -143 17.625 -132.734375 17.625 -104.28125 L 17.625 -40.15625 C 17.625 -11.703125 16.75 -1.4375 4.328125 -1.4375 L 4.328125 0 L 43.328125 0 L 43.328125 -1.4375 C 30.90625 -1.4375 19.0625 -18.34375 19.0625 -60.375 L 19.0625 -136.34375 L 110.5 2.890625 L 111.9375 2.890625 L 111.9375 -104.28125 C 111.9375 -132.734375 112.8125 -143 125.234375 -143 L 125.234375 -144.4375 L 86.234375 -144.4375 L 86.234375 -143 C 98.65625 -143 110.5 -126.09375 110.5 -84.0625 L 110.5 -21.09375 L 29.609375 -144.4375 Z M 4.328125 -144.4375 "/></g></g></g><g fill="#ab669a" fill-opacity="1"><g transform="translate(605.017873, 368.213292)"><g><path d="M 13.96875 0.484375 C 19.75 0.484375 25.4375 -3.234375 25.4375 -9.359375 C 25.4375 -14.890625 20.328125 -17.046875 14.890625 -19.203125 C 10.734375 -20.921875 5.6875 -22.78125 5.6875 -27.390625 C 5.6875 -31.5625 9.0625 -33.859375 13.03125 -33.859375 C 18.625 -33.859375 22.046875 -30.828125 23.859375 -26.5625 L 24.359375 -26.703125 L 24.15625 -32.390625 C 22.25 -33.421875 19.0625 -34.640625 14.609375 -34.640625 C 7.40625 -34.640625 2.640625 -31.015625 2.640625 -25.28125 C 2.640625 -20.09375 6.328125 -18.03125 12.109375 -15.734375 C 16.21875 -14.0625 22.25 -11.8125 22.25 -6.90625 C 22.25 -2.9375 18.859375 -0.390625 14.9375 -0.390625 C 8.140625 -0.390625 4.40625 -4.75 2.5 -9.890625 L 1.953125 -9.796875 L 2.203125 -2.984375 C 4.515625 -1.328125 8.8125 0.484375 13.96875 0.484375 Z M 13.96875 0.484375 "/></g></g></g><g fill="#ab669a" fill-opacity="1"><g transform="translate(633.484686, 368.213292)"><g><path d="M 19.984375 0.484375 C 28.21875 0.484375 37.34375 -4.90625 37.34375 -17 C 37.34375 -29.015625 28.265625 -34.6875 19.984375 -34.6875 C 9.609375 -34.6875 2.546875 -27.25 2.546875 -17.203125 C 2.546875 -5.046875 11.65625 0.484375 19.984375 0.484375 Z M 6.46875 -20.046875 C 6.171875 -28.03125 10.53125 -33.5625 17.984375 -33.5625 C 26.75 -33.5625 33.171875 -24.015625 33.515625 -13.765625 C 33.765625 -6.421875 29.890625 -0.734375 22.046875 -0.734375 C 13.28125 -0.734375 6.8125 -10.1875 6.46875 -20.046875 Z M 6.46875 -20.046875 "/></g></g></g><g fill="#ab669a" fill-opacity="1"><g transform="translate(674.788472, 368.213292)"><g><path d="M 2.5 0 L 25.28125 0 L 25.625 -5.53125 L 25.09375 -5.640625 C 23.375 -1.953125 21.21875 -0.78125 16.515625 -0.78125 L 10.6875 -0.78125 C 9.265625 -0.78125 8.484375 -1.5625 8.484375 -2.984375 L 8.484375 -28.078125 C 8.484375 -32.09375 8.921875 -33.21875 10.4375 -33.65625 L 10.4375 -34.296875 L 2.5 -34.296875 L 2.5 -33.65625 C 3.96875 -33.21875 4.453125 -32.09375 4.453125 -28.078125 L 4.453125 -6.21875 C 4.453125 -2.203125 3.96875 -1.078125 2.5 -0.640625 Z M 2.5 0 "/></g></g></g><g fill="#ab669a" fill-opacity="1"><g transform="translate(702.863328, 368.213292)"><g><path d="M 17.6875 0.484375 C 24.5 0.484375 29.890625 -3.234375 29.890625 -13.078125 L 29.890625 -28.078125 C 29.890625 -32.09375 30.375 -33.21875 31.84375 -33.65625 L 31.84375 -34.296875 L 25.78125 -34.296875 L 25.78125 -33.65625 C 27.9375 -33.078125 29.109375 -31.703125 29.109375 -26.109375 L 29.109375 -12.9375 C 29.109375 -3.328125 23.46875 -0.53125 19.25 -0.53125 C 12.890625 -0.53125 7.84375 -3.828125 7.84375 -12.9375 L 7.84375 -28.078125 C 7.84375 -32.09375 8.328125 -33.21875 9.796875 -33.65625 L 9.796875 -34.296875 L 1.859375 -34.296875 L 1.859375 -33.65625 C 3.375 -33.21875 3.828125 -32.09375 3.828125 -28.078125 L 3.828125 -12.640625 C 3.828125 -2.796875 10.6875 0.484375 17.6875 0.484375 Z M 17.6875 0.484375 "/></g></g></g><g fill="#ab669a" fill-opacity="1"><g transform="translate(737.601637, 368.213292)"><g><path d="M 9.75 0 L 17.734375 0 L 17.734375 -0.640625 C 16.21875 -1.078125 15.78125 -2.203125 15.78125 -6.21875 L 15.78125 -33.515625 L 18.078125 -33.515625 C 22.484375 -33.515625 24.40625 -32.34375 26.0625 -28.8125 L 26.609375 -28.90625 L 26.3125 -34.296875 L 1.078125 -34.296875 L 0.78125 -28.90625 L 1.328125 -28.8125 C 2.984375 -32.34375 4.90625 -33.515625 9.3125 -33.515625 L 11.71875 -33.515625 L 11.71875 -6.21875 C 11.71875 -2.203125 11.265625 -1.078125 9.75 -0.640625 Z M 9.75 0 "/></g></g></g><g fill="#ab669a" fill-opacity="1"><g transform="translate(766.509422, 368.213292)"><g><path d="M 2.5 0 L 10.4375 0 L 10.4375 -0.640625 C 8.921875 -1.078125 8.484375 -2.203125 8.484375 -6.21875 L 8.484375 -28.078125 C 8.484375 -32.09375 8.921875 -33.21875 10.4375 -33.65625 L 10.4375 -34.296875 L 2.5 -34.296875 L 2.5 -33.65625 C 3.96875 -33.21875 4.453125 -32.09375 4.453125 -28.078125 L 4.453125 -6.21875 C 4.453125 -2.203125 3.96875 -1.078125 2.5 -0.640625 Z M 2.5 0 "/></g></g></g><g fill="#ab669a" fill-opacity="1"><g transform="translate(780.914363, 368.213292)"><g><path d="M 19.984375 0.484375 C 28.21875 0.484375 37.34375 -4.90625 37.34375 -17 C 37.34375 -29.015625 28.265625 -34.6875 19.984375 -34.6875 C 9.609375 -34.6875 2.546875 -27.25 2.546875 -17.203125 C 2.546875 -5.046875 11.65625 0.484375 19.984375 0.484375 Z M 6.46875 -20.046875 C 6.171875 -28.03125 10.53125 -33.5625 17.984375 -33.5625 C 26.75 -33.5625 33.171875 -24.015625 33.515625 -13.765625 C 33.765625 -6.421875 29.890625 -0.734375 22.046875 -0.734375 C 13.28125 -0.734375 6.8125 -10.1875 6.46875 -20.046875 Z M 6.46875 -20.046875 "/></g></g></g><g fill="#ab669a" fill-opacity="1"><g transform="translate(822.218158, 368.213292)"><g><path d="M 28.375 0.390625 L 29.015625 0.390625 L 29.015625 -28.078125 C 29.015625 -32.09375 29.453125 -33.21875 30.96875 -33.65625 L 30.96875 -34.296875 L 24.796875 -34.296875 L 24.796875 -33.65625 C 27 -33.078125 28.171875 -31.703125 28.171875 -26.109375 L 28.171875 -6.5625 L 6.765625 -34.296875 L 1.953125 -34.296875 L 1.953125 -33.65625 C 3.921875 -33.21875 4.515625 -32.09375 4.515625 -28.078125 L 4.515625 -6.21875 C 4.515625 -2.203125 4.015625 -1.078125 2.546875 -0.640625 L 2.546875 0 L 8.671875 0 L 8.671875 -0.640625 C 6.46875 -1.21875 5.296875 -2.59375 5.296875 -8.1875 L 5.296875 -29.640625 Z M 28.375 0.390625 "/></g></g></g><g fill="#ab669a" fill-opacity="1"><g transform="translate(856.613511, 368.213292)"><g><path d="M 1.46875 -24.40625 L 1.671875 -23.96875 C 4.5625 -24.984375 7.453125 -28.171875 7.453125 -31.75 C 7.5 -34.15625 6.265625 -35.53125 4.359375 -35.53125 C 2.796875 -35.53125 1.71875 -34.34375 1.71875 -32.734375 C 1.71875 -31.40625 2.796875 -30.328125 4.109375 -30.328125 C 4.5625 -30.328125 4.90625 -30.421875 5.296875 -30.578125 C 5.140625 -28.078125 4.015625 -25.671875 1.46875 -24.40625 Z M 1.46875 -24.40625 "/></g></g></g><g fill="#ab669a" fill-opacity="1"><g transform="translate(867.980698, 368.213292)"><g><path d="M 13.96875 0.484375 C 19.75 0.484375 25.4375 -3.234375 25.4375 -9.359375 C 25.4375 -14.890625 20.328125 -17.046875 14.890625 -19.203125 C 10.734375 -20.921875 5.6875 -22.78125 5.6875 -27.390625 C 5.6875 -31.5625 9.0625 -33.859375 13.03125 -33.859375 C 18.625 -33.859375 22.046875 -30.828125 23.859375 -26.5625 L 24.359375 -26.703125 L 24.15625 -32.390625 C 22.25 -33.421875 19.0625 -34.640625 14.609375 -34.640625 C 7.40625 -34.640625 2.640625 -31.015625 2.640625 -25.28125 C 2.640625 -20.09375 6.328125 -18.03125 12.109375 -15.734375 C 16.21875 -14.0625 22.25 -11.8125 22.25 -6.90625 C 22.25 -2.9375 18.859375 -0.390625 14.9375 -0.390625 C 8.140625 -0.390625 4.40625 -4.75 2.5 -9.890625 L 1.953125 -9.796875 L 2.203125 -2.984375 C 4.515625 -1.328125 8.8125 0.484375 13.96875 0.484375 Z M 13.96875 0.484375 "/></g></g></g></svg>