<svg xmlns="http://www.w3.org/2000/svg" xmlns:xlink="http://www.w3.org/1999/xlink" width="500" zoomAndPan="magnify" viewBox="0 0 375 374.999991" height="500" preserveAspectRatio="xMidYMid meet" version="1.0"><defs><g/><clipPath id="c5b886b857"><path d="M 65.574219 65.574219 L 309.425781 65.574219 L 309.425781 309.425781 L 65.574219 309.425781 Z M 65.574219 65.574219 " clip-rule="nonzero"/></clipPath><clipPath id="41c0542c3d"><path d="M 187.5 65.574219 C 120.164062 65.574219 65.574219 120.164062 65.574219 187.5 C 65.574219 254.835938 120.164062 309.425781 187.5 309.425781 C 254.835938 309.425781 309.425781 254.835938 309.425781 187.5 C 309.425781 120.164062 254.835938 65.574219 187.5 65.574219 Z M 187.5 65.574219 " clip-rule="nonzero"/></clipPath><linearGradient x1="0.000000281027" gradientTransform="matrix(0.952535, 0, 0, 0.952535, 65.575488, 65.575498)" y1="128" x2="255.999984" gradientUnits="userSpaceOnUse" y2="128" id="1b400a1f48"><stop stop-opacity="1" stop-color="rgb(100%, 96.899414%, 67.799377%)" offset="0"/><stop stop-opacity="1" stop-color="rgb(100%, 96.77887%, 67.915344%)" offset="0.0078125"/><stop stop-opacity="1" stop-color="rgb(100%, 96.540833%, 68.147278%)" offset="0.015625"/><stop stop-opacity="1" stop-color="rgb(100%, 96.30127%, 68.380737%)" offset="0.0234375"/><stop stop-opacity="1" stop-color="rgb(100%, 96.061707%, 68.614197%)" offset="0.03125"/><stop stop-opacity="1" stop-color="rgb(100%, 95.823669%, 68.84613%)" offset="0.0390625"/><stop stop-opacity="1" stop-color="rgb(100%, 95.584106%, 69.07959%)" offset="0.046875"/><stop stop-opacity="1" stop-color="rgb(100%, 95.344543%, 69.311523%)" offset="0.0546875"/><stop stop-opacity="1" stop-color="rgb(100%, 95.106506%, 69.544983%)" offset="0.0625"/><stop stop-opacity="1" stop-color="rgb(100%, 94.866943%, 69.778442%)" offset="0.0703125"/><stop stop-opacity="1" stop-color="rgb(100%, 94.62738%, 70.010376%)" offset="0.078125"/><stop stop-opacity="1" stop-color="rgb(100%, 94.387817%, 70.243835%)" offset="0.0859375"/><stop stop-opacity="1" stop-color="rgb(100%, 94.14978%, 70.475769%)" offset="0.09375"/><stop stop-opacity="1" stop-color="rgb(100%, 93.910217%, 70.709229%)" offset="0.101562"/><stop stop-opacity="1" stop-color="rgb(100%, 93.670654%, 70.941162%)" offset="0.109375"/><stop stop-opacity="1" stop-color="rgb(100%, 93.432617%, 71.174622%)" offset="0.117187"/><stop stop-opacity="1" stop-color="rgb(100%, 93.193054%, 71.408081%)" offset="0.125"/><stop stop-opacity="1" stop-color="rgb(100%, 92.953491%, 71.640015%)" offset="0.132812"/><stop stop-opacity="1" stop-color="rgb(100%, 92.715454%, 71.873474%)" offset="0.140625"/><stop stop-opacity="1" stop-color="rgb(100%, 92.475891%, 72.105408%)" offset="0.148437"/><stop stop-opacity="1" stop-color="rgb(100%, 92.236328%, 72.338867%)" offset="0.15625"/><stop stop-opacity="1" stop-color="rgb(100%, 91.998291%, 72.570801%)" offset="0.164062"/><stop stop-opacity="1" stop-color="rgb(100%, 91.758728%, 72.80426%)" offset="0.171875"/><stop stop-opacity="1" stop-color="rgb(100%, 91.519165%, 73.03772%)" offset="0.179687"/><stop stop-opacity="1" stop-color="rgb(100%, 91.281128%, 73.269653%)" offset="0.1875"/><stop stop-opacity="1" stop-color="rgb(100%, 91.041565%, 73.503113%)" offset="0.195312"/><stop stop-opacity="1" stop-color="rgb(100%, 90.802002%, 73.735046%)" offset="0.203125"/><stop stop-opacity="1" stop-color="rgb(100%, 90.563965%, 73.968506%)" offset="0.210937"/><stop stop-opacity="1" stop-color="rgb(100%, 90.324402%, 74.200439%)" offset="0.21875"/><stop stop-opacity="1" stop-color="rgb(100%, 90.084839%, 74.433899%)" offset="0.226562"/><stop stop-opacity="1" stop-color="rgb(100%, 89.846802%, 74.667358%)" offset="0.234375"/><stop stop-opacity="1" stop-color="rgb(100%, 89.607239%, 74.899292%)" offset="0.242187"/><stop stop-opacity="1" stop-color="rgb(100%, 89.367676%, 75.132751%)" offset="0.25"/><stop stop-opacity="1" stop-color="rgb(100%, 89.129639%, 75.364685%)" offset="0.257812"/><stop stop-opacity="1" stop-color="rgb(100%, 88.890076%, 75.598145%)" offset="0.265625"/><stop stop-opacity="1" stop-color="rgb(100%, 88.650513%, 75.830078%)" offset="0.273437"/><stop stop-opacity="1" stop-color="rgb(100%, 88.412476%, 76.063538%)" offset="0.28125"/><stop stop-opacity="1" stop-color="rgb(100%, 88.172913%, 76.296997%)" offset="0.289062"/><stop stop-opacity="1" stop-color="rgb(100%, 87.93335%, 76.528931%)" offset="0.296875"/><stop stop-opacity="1" stop-color="rgb(100%, 87.695312%, 76.76239%)" offset="0.304688"/><stop stop-opacity="1" stop-color="rgb(100%, 87.45575%, 76.994324%)" offset="0.3125"/><stop stop-opacity="1" stop-color="rgb(100%, 87.216187%, 77.227783%)" offset="0.320312"/><stop stop-opacity="1" stop-color="rgb(100%, 86.978149%, 77.461243%)" offset="0.328125"/><stop stop-opacity="1" stop-color="rgb(100%, 86.738586%, 77.693176%)" offset="0.335937"/><stop stop-opacity="1" stop-color="rgb(100%, 86.499023%, 77.926636%)" offset="0.34375"/><stop stop-opacity="1" stop-color="rgb(100%, 86.260986%, 78.158569%)" offset="0.351562"/><stop stop-opacity="1" stop-color="rgb(100%, 86.021423%, 78.392029%)" offset="0.359375"/><stop stop-opacity="1" stop-color="rgb(100%, 85.78186%, 78.623962%)" offset="0.367188"/><stop stop-opacity="1" stop-color="rgb(100%, 85.543823%, 78.857422%)" offset="0.375"/><stop stop-opacity="1" stop-color="rgb(100%, 85.30426%, 79.090881%)" offset="0.382812"/><stop stop-opacity="1" stop-color="rgb(100%, 85.064697%, 79.322815%)" offset="0.390625"/><stop stop-opacity="1" stop-color="rgb(100%, 84.82666%, 79.556274%)" offset="0.398437"/><stop stop-opacity="1" stop-color="rgb(100%, 84.587097%, 79.788208%)" offset="0.40625"/><stop stop-opacity="1" stop-color="rgb(100%, 84.347534%, 80.021667%)" offset="0.414062"/><stop stop-opacity="1" stop-color="rgb(100%, 84.109497%, 80.253601%)" offset="0.421875"/><stop stop-opacity="1" stop-color="rgb(100%, 83.869934%, 80.487061%)" offset="0.429687"/><stop stop-opacity="1" stop-color="rgb(100%, 83.630371%, 80.72052%)" offset="0.4375"/><stop stop-opacity="1" stop-color="rgb(100%, 83.392334%, 80.952454%)" offset="0.445312"/><stop stop-opacity="1" stop-color="rgb(100%, 83.152771%, 81.185913%)" offset="0.453125"/><stop stop-opacity="1" stop-color="rgb(100%, 82.913208%, 81.417847%)" offset="0.460938"/><stop stop-opacity="1" stop-color="rgb(100%, 82.675171%, 81.651306%)" offset="0.46875"/><stop stop-opacity="1" stop-color="rgb(100%, 82.435608%, 81.88324%)" offset="0.476562"/><stop stop-opacity="1" stop-color="rgb(100%, 82.196045%, 82.116699%)" offset="0.484375"/><stop stop-opacity="1" stop-color="rgb(100%, 81.958008%, 82.350159%)" offset="0.492187"/><stop stop-opacity="1" stop-color="rgb(100%, 81.718445%, 82.582092%)" offset="0.5"/><stop stop-opacity="1" stop-color="rgb(100%, 81.478882%, 82.815552%)" offset="0.507812"/><stop stop-opacity="1" stop-color="rgb(100%, 81.240845%, 83.047485%)" offset="0.515625"/><stop stop-opacity="1" stop-color="rgb(100%, 81.001282%, 83.280945%)" offset="0.523437"/><stop stop-opacity="1" stop-color="rgb(100%, 80.761719%, 83.512878%)" offset="0.53125"/><stop stop-opacity="1" stop-color="rgb(100%, 80.523682%, 83.746338%)" offset="0.539062"/><stop stop-opacity="1" stop-color="rgb(100%, 80.284119%, 83.979797%)" offset="0.546875"/><stop stop-opacity="1" stop-color="rgb(100%, 80.044556%, 84.211731%)" offset="0.554687"/><stop stop-opacity="1" stop-color="rgb(100%, 79.806519%, 84.44519%)" offset="0.5625"/><stop stop-opacity="1" stop-color="rgb(100%, 79.566956%, 84.677124%)" offset="0.570312"/><stop stop-opacity="1" stop-color="rgb(100%, 79.327393%, 84.910583%)" offset="0.578125"/><stop stop-opacity="1" stop-color="rgb(100%, 79.08783%, 85.144043%)" offset="0.585938"/><stop stop-opacity="1" stop-color="rgb(100%, 78.849792%, 85.375977%)" offset="0.59375"/><stop stop-opacity="1" stop-color="rgb(100%, 78.610229%, 85.609436%)" offset="0.601562"/><stop stop-opacity="1" stop-color="rgb(100%, 78.370667%, 85.84137%)" offset="0.609375"/><stop stop-opacity="1" stop-color="rgb(100%, 78.132629%, 86.074829%)" offset="0.617187"/><stop stop-opacity="1" stop-color="rgb(100%, 77.893066%, 86.306763%)" offset="0.625"/><stop stop-opacity="1" stop-color="rgb(100%, 77.653503%, 86.540222%)" offset="0.632812"/><stop stop-opacity="1" stop-color="rgb(100%, 77.415466%, 86.773682%)" offset="0.640625"/><stop stop-opacity="1" stop-color="rgb(100%, 77.175903%, 87.005615%)" offset="0.648437"/><stop stop-opacity="1" stop-color="rgb(100%, 76.93634%, 87.239075%)" offset="0.65625"/><stop stop-opacity="1" stop-color="rgb(100%, 76.698303%, 87.471008%)" offset="0.664062"/><stop stop-opacity="1" stop-color="rgb(100%, 76.45874%, 87.704468%)" offset="0.671875"/><stop stop-opacity="1" stop-color="rgb(100%, 76.219177%, 87.936401%)" offset="0.679687"/><stop stop-opacity="1" stop-color="rgb(100%, 75.98114%, 88.169861%)" offset="0.6875"/><stop stop-opacity="1" stop-color="rgb(100%, 75.741577%, 88.40332%)" offset="0.695312"/><stop stop-opacity="1" stop-color="rgb(100%, 75.502014%, 88.635254%)" offset="0.703125"/><stop stop-opacity="1" stop-color="rgb(100%, 75.263977%, 88.868713%)" offset="0.710937"/><stop stop-opacity="1" stop-color="rgb(100%, 75.024414%, 89.100647%)" offset="0.71875"/><stop stop-opacity="1" stop-color="rgb(100%, 74.784851%, 89.334106%)" offset="0.726562"/><stop stop-opacity="1" stop-color="rgb(100%, 74.546814%, 89.56604%)" offset="0.734375"/><stop stop-opacity="1" stop-color="rgb(100%, 74.307251%, 89.7995%)" offset="0.742187"/><stop stop-opacity="1" stop-color="rgb(100%, 74.067688%, 90.032959%)" offset="0.75"/><stop stop-opacity="1" stop-color="rgb(100%, 73.829651%, 90.264893%)" offset="0.757812"/><stop stop-opacity="1" stop-color="rgb(100%, 73.590088%, 90.498352%)" offset="0.765625"/><stop stop-opacity="1" stop-color="rgb(100%, 73.350525%, 90.730286%)" offset="0.773437"/><stop stop-opacity="1" stop-color="rgb(100%, 73.112488%, 90.963745%)" offset="0.78125"/><stop stop-opacity="1" stop-color="rgb(100%, 72.872925%, 91.197205%)" offset="0.789062"/><stop stop-opacity="1" stop-color="rgb(100%, 72.633362%, 91.429138%)" offset="0.796875"/><stop stop-opacity="1" stop-color="rgb(100%, 72.395325%, 91.662598%)" offset="0.804687"/><stop stop-opacity="1" stop-color="rgb(100%, 72.155762%, 91.894531%)" offset="0.8125"/><stop stop-opacity="1" stop-color="rgb(100%, 71.916199%, 92.127991%)" offset="0.820312"/><stop stop-opacity="1" stop-color="rgb(100%, 71.678162%, 92.359924%)" offset="0.828125"/><stop stop-opacity="1" stop-color="rgb(100%, 71.438599%, 92.593384%)" offset="0.835937"/><stop stop-opacity="1" stop-color="rgb(100%, 71.199036%, 92.826843%)" offset="0.84375"/><stop stop-opacity="1" stop-color="rgb(100%, 70.960999%, 93.058777%)" offset="0.851562"/><stop stop-opacity="1" stop-color="rgb(100%, 70.721436%, 93.292236%)" offset="0.859375"/><stop stop-opacity="1" stop-color="rgb(100%, 70.481873%, 93.52417%)" offset="0.867187"/><stop stop-opacity="1" stop-color="rgb(100%, 70.243835%, 93.757629%)" offset="0.875"/><stop stop-opacity="1" stop-color="rgb(100%, 70.004272%, 93.989563%)" offset="0.882812"/><stop stop-opacity="1" stop-color="rgb(100%, 69.764709%, 94.223022%)" offset="0.890625"/><stop stop-opacity="1" stop-color="rgb(100%, 69.526672%, 94.456482%)" offset="0.898437"/><stop stop-opacity="1" stop-color="rgb(100%, 69.287109%, 94.688416%)" offset="0.90625"/><stop stop-opacity="1" stop-color="rgb(100%, 69.047546%, 94.921875%)" offset="0.914062"/><stop stop-opacity="1" stop-color="rgb(100%, 68.809509%, 95.153809%)" offset="0.921875"/><stop stop-opacity="1" stop-color="rgb(100%, 68.569946%, 95.387268%)" offset="0.929688"/><stop stop-opacity="1" stop-color="rgb(100%, 68.330383%, 95.619202%)" offset="0.9375"/><stop stop-opacity="1" stop-color="rgb(100%, 68.092346%, 95.852661%)" offset="0.945312"/><stop stop-opacity="1" stop-color="rgb(100%, 67.852783%, 96.086121%)" offset="0.953125"/><stop stop-opacity="1" stop-color="rgb(100%, 67.61322%, 96.318054%)" offset="0.960937"/><stop stop-opacity="1" stop-color="rgb(100%, 67.375183%, 96.551514%)" offset="0.96875"/><stop stop-opacity="1" stop-color="rgb(100%, 67.13562%, 96.783447%)" offset="0.976562"/><stop stop-opacity="1" stop-color="rgb(100%, 66.896057%, 97.016907%)" offset="0.984375"/><stop stop-opacity="1" stop-color="rgb(100%, 66.65802%, 97.24884%)" offset="0.992187"/><stop stop-opacity="1" stop-color="rgb(100%, 66.418457%, 97.4823%)" offset="1"/></linearGradient><clipPath id="7c19e09513"><path d="M 101 224 L 112 224 L 112 234 L 101 234 Z M 101 224 " clip-rule="nonzero"/></clipPath><clipPath id="0dad3317da"><path d="M 99.753906 226.191406 L 109.351562 221.933594 L 113.609375 231.535156 L 104.007812 235.789062 Z M 99.753906 226.191406 " clip-rule="nonzero"/></clipPath><clipPath id="8b5ce9d736"><path d="M 99.753906 226.191406 L 109.351562 221.933594 L 113.609375 231.535156 L 104.007812 235.789062 Z M 99.753906 226.191406 " clip-rule="nonzero"/></clipPath><clipPath id="33d09d7f06"><path d="M 99.753906 226.191406 L 109.351562 221.933594 L 113.609375 231.535156 L 104.007812 235.789062 Z M 99.753906 226.191406 " clip-rule="nonzero"/></clipPath><clipPath id="e782be1d6d"><path d="M 224 210 L 240 210 L 240 226 L 224 226 Z M 224 210 " clip-rule="nonzero"/></clipPath><clipPath id="4e1fdc4e16"><path d="M 221.167969 213.695312 L 236.25 207.003906 L 242.941406 222.089844 L 227.855469 228.777344 Z M 221.167969 213.695312 " clip-rule="nonzero"/></clipPath><clipPath id="c9f6b82360"><path d="M 221.167969 213.695312 L 236.25 207.003906 L 242.941406 222.089844 L 227.855469 228.777344 Z M 221.167969 213.695312 " clip-rule="nonzero"/></clipPath><clipPath id="fd0716714f"><path d="M 221.167969 213.695312 L 236.25 207.003906 L 242.941406 222.089844 L 227.855469 228.777344 Z M 221.167969 213.695312 " clip-rule="nonzero"/></clipPath><clipPath id="3ad8d55165"><path d="M 264 134 L 274 134 L 274 144 L 264 144 Z M 264 134 " clip-rule="nonzero"/></clipPath><clipPath id="e0804329f0"><path d="M 263.015625 136.84375 L 271.929688 132.890625 L 275.882812 141.804688 L 266.96875 145.753906 Z M 263.015625 136.84375 " clip-rule="nonzero"/></clipPath><clipPath id="9fef1e454a"><path d="M 263.015625 136.84375 L 271.929688 132.890625 L 275.882812 141.804688 L 266.96875 145.753906 Z M 263.015625 136.84375 " clip-rule="nonzero"/></clipPath><clipPath id="f5836e8083"><path d="M 263.015625 136.84375 L 271.929688 132.890625 L 275.882812 141.804688 L 266.96875 145.753906 Z M 263.015625 136.84375 " clip-rule="nonzero"/></clipPath></defs><g clip-path="url(#c5b886b857)"><g clip-path="url(#41c0542c3d)"><path fill="url(#1b400a1f48)" d="M 65.574219 65.574219 L 65.574219 309.425781 L 309.425781 309.425781 L 309.425781 65.574219 Z M 65.574219 65.574219 " fill-rule="nonzero"/></g></g><g clip-path="url(#7c19e09513)"><g clip-path="url(#0dad3317da)"><g clip-path="url(#8b5ce9d736)"><g clip-path="url(#33d09d7f06)"><path fill="#ffffff" d="M 111.480469 226.734375 C 107.273438 228.914062 107.152344 229.222656 108.808594 233.664062 C 106.628906 229.453125 106.324219 229.335938 101.882812 230.992188 C 106.089844 228.8125 106.207031 228.503906 104.550781 224.0625 C 106.734375 228.273438 107.039062 228.390625 111.480469 226.734375 Z M 111.480469 226.734375 " fill-opacity="1" fill-rule="nonzero"/></g></g></g></g><g clip-path="url(#e782be1d6d)"><g clip-path="url(#4e1fdc4e16)"><g clip-path="url(#c9f6b82360)"><g clip-path="url(#fd0716714f)"><path fill="#ffffff" d="M 239.597656 214.546875 C 232.984375 217.972656 232.796875 218.453125 235.398438 225.433594 C 231.972656 218.820312 231.492188 218.632812 224.511719 221.234375 C 231.125 217.808594 231.3125 217.328125 228.710938 210.347656 C 232.136719 216.960938 232.617188 217.148438 239.597656 214.546875 Z M 239.597656 214.546875 " fill-opacity="1" fill-rule="nonzero"/></g></g></g></g><g clip-path="url(#3ad8d55165)"><g clip-path="url(#e0804329f0)"><g clip-path="url(#9fef1e454a)"><g clip-path="url(#f5836e8083)"><path fill="#ffffff" d="M 273.90625 137.347656 C 269.996094 139.371094 269.886719 139.65625 271.425781 143.78125 C 269.402344 139.871094 269.117188 139.761719 264.992188 141.300781 C 268.902344 139.273438 269.011719 138.988281 267.472656 134.867188 C 269.496094 138.773438 269.78125 138.882812 273.90625 137.347656 Z M 273.90625 137.347656 " fill-opacity="1" fill-rule="nonzero"/></g></g></g></g><g fill="#74004c" fill-opacity="1"><g transform="translate(127.478834, 226.914434)"><g><path d="M 7.390625 0.234375 C 11.28125 0.234375 13.75 -1.140625 13.75 -3.421875 C 13.75 -8.296875 3.609375 -6.03125 3.609375 -8.625 C 3.609375 -9.640625 5.3125 -9.90625 7.234375 -9.90625 C 9.25 -9.90625 11.296875 -9.421875 12.546875 -8.6875 L 12.546875 -11.203125 C 11.203125 -11.765625 9.078125 -12.15625 7.140625 -12.15625 C 3.671875 -12.15625 0.875 -10.953125 0.875 -8.65625 C 0.875 -3.734375 10.984375 -5.890625 10.984375 -3.40625 C 10.984375 -2.34375 9.5 -2 7.34375 -2 C 4.890625 -2 2.53125 -2.53125 0.75 -3.671875 L 0.625 -0.96875 C 2.484375 -0.234375 5.328125 0.234375 7.390625 0.234375 Z M 7.390625 0.234375 "/></g></g></g><g fill="#74004c" fill-opacity="1"><g transform="translate(142.83266, 226.914434)"><g><path d="M 8.140625 0.234375 C 12.40625 0.234375 15.515625 -2.09375 15.515625 -5.953125 C 15.515625 -9.828125 12.40625 -12.15625 8.140625 -12.15625 C 3.890625 -12.15625 0.765625 -9.828125 0.765625 -5.953125 C 0.765625 -2.09375 3.890625 0.234375 8.140625 0.234375 Z M 8.140625 -1.875 C 5.46875 -1.875 3.453125 -3.4375 3.453125 -5.953125 C 3.453125 -8.5 5.46875 -10.046875 8.140625 -10.046875 C 10.8125 -10.046875 12.828125 -8.5 12.828125 -5.953125 C 12.828125 -3.4375 10.8125 -1.875 8.140625 -1.875 Z M 8.140625 -1.875 "/></g></g></g><g fill="#74004c" fill-opacity="1"><g transform="translate(160.058815, 226.914434)"><g><path d="M 10.359375 0.25 C 11.40625 0.25 12.484375 -0.03125 12.90625 -0.125 L 13.0625 -2.734375 C 12.34375 -2.453125 11 -2.25 9.53125 -2.25 L 4.34375 -2.25 L 4.34375 -8.78125 C 4.34375 -9.953125 4.484375 -11.25 4.65625 -11.921875 L 1.375 -11.921875 C 1.5625 -11.25 1.703125 -10.21875 1.703125 -9.0625 L 1.703125 -2.859375 C 1.703125 -1.703125 1.578125 -0.421875 1.375 0.25 C 2.15625 0.03125 3.46875 -0.234375 5.046875 -0.234375 C 7.140625 -0.234375 8.390625 0.25 10.359375 0.25 Z M 10.359375 0.25 "/></g></g></g><g fill="#74004c" fill-opacity="1"><g transform="translate(174.544551, 226.914434)"><g><path d="M 7.984375 0.234375 C 12.09375 0.234375 14.40625 -1.828125 14.40625 -5.21875 L 14.40625 -9.0625 C 14.40625 -10.21875 14.53125 -11.25 14.71875 -11.921875 L 11.4375 -11.921875 C 11.625 -11.25 11.75 -10.171875 11.75 -9.03125 L 11.75 -5.609375 C 11.75 -3.4375 10.21875 -2.078125 7.984375 -2.078125 C 5.75 -2.078125 4.234375 -3.4375 4.234375 -5.609375 L 4.234375 -9.03125 C 4.234375 -10.171875 4.359375 -11.25 4.53125 -11.921875 L 1.28125 -11.921875 C 1.46875 -11.25 1.578125 -10.21875 1.578125 -9.0625 L 1.578125 -5.21875 C 1.578125 -1.734375 4 0.234375 7.984375 0.234375 Z M 7.984375 0.234375 "/></g></g></g><g fill="#74004c" fill-opacity="1"><g transform="translate(191.481345, 226.914434)"><g><path d="M 5.328125 0 L 8.59375 0 C 8.390625 -0.6875 8.296875 -1.703125 8.296875 -2.859375 L 8.296875 -9.609375 L 11.234375 -9.609375 C 12.34375 -9.609375 13 -9.5 13.5625 -9.3125 L 13.03125 -11.921875 L 0.890625 -11.921875 L 0.359375 -9.3125 C 0.9375 -9.515625 1.5625 -9.609375 2.671875 -9.609375 L 5.640625 -9.609375 L 5.640625 -2.859375 C 5.640625 -1.703125 5.515625 -0.6875 5.328125 0 Z M 5.328125 0 "/></g></g></g><g fill="#74004c" fill-opacity="1"><g transform="translate(206.324531, 226.914434)"><g><path d="M 1.375 0 L 4.65625 0 C 4.46875 -0.671875 4.34375 -1.703125 4.34375 -2.859375 L 4.34375 -9.0625 C 4.34375 -10.21875 4.46875 -11.25 4.65625 -11.921875 L 1.375 -11.921875 C 1.5625 -11.25 1.6875 -10.21875 1.6875 -9.0625 L 1.6875 -2.859375 C 1.6875 -1.703125 1.578125 -0.671875 1.375 0 Z M 1.375 0 "/></g></g></g><g fill="#74004c" fill-opacity="1"><g transform="translate(213.320945, 226.914434)"><g><path d="M 8.140625 0.234375 C 12.40625 0.234375 15.515625 -2.09375 15.515625 -5.953125 C 15.515625 -9.828125 12.40625 -12.15625 8.140625 -12.15625 C 3.890625 -12.15625 0.765625 -9.828125 0.765625 -5.953125 C 0.765625 -2.09375 3.890625 0.234375 8.140625 0.234375 Z M 8.140625 -1.875 C 5.46875 -1.875 3.453125 -3.4375 3.453125 -5.953125 C 3.453125 -8.5 5.46875 -10.046875 8.140625 -10.046875 C 10.8125 -10.046875 12.828125 -8.5 12.828125 -5.953125 C 12.828125 -3.4375 10.8125 -1.875 8.140625 -1.875 Z M 8.140625 -1.875 "/></g></g></g><g fill="#74004c" fill-opacity="1"><g transform="translate(230.547098, 226.914434)"><g><path d="M 1.375 0 L 4.65625 0 C 4.5 -0.59375 4.34375 -1.859375 4.34375 -3.046875 L 4.34375 -8.640625 L 4.546875 -8.640625 L 12.828125 0 L 15.265625 0 L 15.265625 -9.0625 C 15.265625 -10.21875 15.375 -11.25 15.5625 -11.921875 L 12.296875 -11.921875 C 12.453125 -11.375 12.609375 -10.28125 12.609375 -9.109375 L 12.609375 -3.5625 L 12.375 -3.5625 L 4.46875 -11.921875 L 1.375 -11.921875 C 1.578125 -11.25 1.703125 -10.21875 1.703125 -9.0625 L 1.703125 -2.859375 C 1.703125 -1.703125 1.5625 -0.671875 1.375 0 Z M 1.375 0 "/></g></g></g><g fill="#597cff" fill-opacity="0.302"><g transform="translate(92.368523, 198.331944)"><g><path d="M 0.875 0 C 3.578125 0.421875 10.140625 0.625 13.203125 0.625 C 19.671875 0.625 28.375 -2.75 28.375 -12.46875 C 28.375 -21.4375 23.390625 -23.25 17.96875 -23.25 C 14.28125 -23.25 10.359375 -22.421875 7.5625 -22.421875 C 6.109375 -22.421875 3.78125 -22.671875 3.78125 -24.59375 C 3.78125 -27.171875 8.953125 -30.078125 14.234375 -30.078125 C 20.65625 -30.078125 24.375 -27.75 26.453125 -25.984375 L 26.453125 -39.03125 C 24.6875 -39.296875 21.0625 -39.65625 18.328125 -39.65625 C 11.59375 -39.65625 1.25 -38.3125 1.25 -29.34375 C 1.25 -12.375 26.65625 -14.4375 26.65625 -10.96875 C 26.65625 -9.0625 22.46875 -8.90625 21.328125 -8.90625 C 14.5 -8.90625 3.3125 -11.859375 0.875 -12.84375 Z M 0.875 0 "/></g></g></g><g fill="#597cff" fill-opacity="0.302"><g transform="translate(121.618008, 198.331944)"><g><path d="M -0.78125 0 L 12.421875 0 C 9.21875 -5.171875 7.921875 -9.625 7.921875 -13.40625 C 7.921875 -24.75 19.359375 -29.875 24.015625 -29.875 C 25 -29.875 26.140625 -29.65625 26.140625 -28.46875 C 26.140625 -25.046875 14.703125 -19.46875 14.703125 -9.3125 C 14.703125 -6.578125 15.53125 -3.46875 17.65625 0 L 35.515625 0 C 28.984375 -11.28125 27.125 -23.703125 27.125 -39.03125 L 4.5625 -39.03125 C 6.359375 -36.390625 7.34375 -31.984375 7.34375 -27.328125 C 7.34375 -24.796875 7.046875 -22.15625 6.421875 -19.671875 C 4.65625 -12.734375 1.34375 -5.75 -0.78125 0 Z M -0.78125 0 "/></g></g></g><g fill="#597cff" fill-opacity="0.302"><g transform="translate(156.355006, 198.331944)"><g><path d="M 8.4375 0 L 23.703125 0 C 19.40625 -6.828125 15.640625 -14.234375 15.640625 -22.203125 C 15.640625 -25.46875 15.84375 -29.921875 20.390625 -29.921875 C 24.015625 -29.921875 28.578125 -26.96875 29.71875 -26.09375 L 29.71875 -39.03125 L 0.265625 -39.03125 L 0.265625 -26.09375 C 2.4375 -27.015625 6.828125 -29.65625 10.09375 -29.65625 C 11.75 -29.65625 13.453125 -28.78125 13.453125 -26.96875 C 13.453125 -23.1875 6.46875 -16.609375 6.46875 -7.921875 C 6.46875 -5.4375 6.984375 -2.796875 8.4375 0 Z M 8.4375 0 "/></g></g></g><g fill="#597cff" fill-opacity="0.302"><g transform="translate(186.329254, 198.331944)"><g><path d="M 34.375 -39.03125 L 21.640625 -39.03125 C 25.265625 -34.578125 26.65625 -30.546875 26.65625 -26.96875 C 26.65625 -15.640625 12.46875 -8.859375 7.765625 -8.859375 C 6.671875 -8.859375 6.0625 -9.21875 6.0625 -10.359375 C 6.0625 -14.28125 16.15625 -22.265625 16.15625 -32.203125 C 16.15625 -34.375 15.640625 -36.65625 14.4375 -39.03125 L 0.875 -39.03125 C 3.625 -31.625 4.453125 -25.265625 4.453125 -19.828125 C 4.453125 -12.421875 2.953125 -6.9375 2.953125 -3.515625 C 2.953125 -0.78125 3.875 0.625 7.40625 0.625 C 16.359375 0.625 22.875 -7.5625 25 -17.234375 L 26.140625 -17.234375 L 21.640625 0 L 34.375 0 C 31.9375 -5.84375 30.859375 -12.375 30.859375 -18.796875 C 30.859375 -25.9375 32.203125 -33.03125 34.375 -39.03125 Z M 34.375 -39.03125 "/></g></g></g><g fill="#597cff" fill-opacity="0.302"><g transform="translate(221.739248, 198.331944)"><g><path d="M 1.03125 0 L 13.765625 0 C 10.140625 -3.984375 8.546875 -9.109375 8.546875 -15.484375 C 18.53125 -15.484375 16.984375 0.515625 27.390625 0.515625 C 28.46875 0.515625 29.609375 0.359375 30.953125 0 L 30.953125 -12.890625 C 29.875 -12.78125 28.515625 -12.6875 27.171875 -12.6875 C 22.828125 -12.6875 17.90625 -13.671875 16.828125 -17.296875 C 26.1875 -18.0625 31 -23.09375 31 -29.046875 C 31 -37.6875 21.015625 -39.65625 11.390625 -39.65625 C 8.125 -39.65625 3.578125 -39.390625 1.03125 -39.03125 C 3.46875 -33.1875 4.5625 -26.65625 4.5625 -20.234375 C 4.5625 -13.09375 3.203125 -6 1.03125 0 Z M 24.171875 -29.875 C 25.46875 -29.875 26.140625 -29.296875 26.140625 -28.3125 C 26.140625 -24.484375 16.5625 -18.265625 12.84375 -18.265625 C 11.546875 -18.265625 10.8125 -18.84375 10.8125 -19.828125 C 10.8125 -23.65625 20.390625 -29.875 24.171875 -29.875 Z M 24.171875 -29.875 "/></g></g></g><g fill="#597cff" fill-opacity="0.302"><g transform="translate(253.628958, 198.331944)"><g><path d="M 1.03125 0 L 12.421875 0 C 9.0625 -5.4375 7.765625 -10.046875 7.765625 -13.921875 C 7.765625 -24.90625 18.171875 -29.875 22.515625 -29.875 C 23.546875 -29.875 24.59375 -29.609375 24.59375 -28.375 C 24.59375 -25.046875 14.5 -19.625 14.5 -9.78125 C 14.5 -6.9375 15.375 -3.671875 17.65625 0 L 37.109375 0 C 34.625 -5.90625 33.75 -11.4375 33.75 -16.875 C 33.75 -24.171875 35.359375 -31.3125 37.109375 -39.03125 L 27.59375 -39.03125 C 28 -28.578125 29.25 -18.953125 30.59375 -10.71875 C 24.53125 -11.859375 22.78125 -14.390625 22.78125 -17.4375 C 22.78125 -21.84375 26.5 -27.28125 26.5 -31.3125 C 26.5 -36.125 21.4375 -39.65625 10.046875 -39.65625 C 6 -39.65625 3.734375 -39.453125 1.03125 -39.03125 C 3.46875 -33.1875 4.5625 -26.65625 4.5625 -20.234375 C 4.5625 -13.09375 3.203125 -6 1.03125 0 Z M 1.03125 0 "/></g></g></g><g fill="#597cff" fill-opacity="0.502"><g transform="translate(90.08044, 196.043859)"><g><path d="M 0.875 0 C 3.578125 0.421875 10.140625 0.625 13.203125 0.625 C 19.671875 0.625 28.375 -2.75 28.375 -12.46875 C 28.375 -21.4375 23.390625 -23.25 17.96875 -23.25 C 14.28125 -23.25 10.359375 -22.421875 7.5625 -22.421875 C 6.109375 -22.421875 3.78125 -22.671875 3.78125 -24.59375 C 3.78125 -27.171875 8.953125 -30.078125 14.234375 -30.078125 C 20.65625 -30.078125 24.375 -27.75 26.453125 -25.984375 L 26.453125 -39.03125 C 24.6875 -39.296875 21.0625 -39.65625 18.328125 -39.65625 C 11.59375 -39.65625 1.25 -38.3125 1.25 -29.34375 C 1.25 -12.375 26.65625 -14.4375 26.65625 -10.96875 C 26.65625 -9.0625 22.46875 -8.90625 21.328125 -8.90625 C 14.5 -8.90625 3.3125 -11.859375 0.875 -12.84375 Z M 0.875 0 "/></g></g></g><g fill="#597cff" fill-opacity="0.502"><g transform="translate(119.329926, 196.043859)"><g><path d="M -0.78125 0 L 12.421875 0 C 9.21875 -5.171875 7.921875 -9.625 7.921875 -13.40625 C 7.921875 -24.75 19.359375 -29.875 24.015625 -29.875 C 25 -29.875 26.140625 -29.65625 26.140625 -28.46875 C 26.140625 -25.046875 14.703125 -19.46875 14.703125 -9.3125 C 14.703125 -6.578125 15.53125 -3.46875 17.65625 0 L 35.515625 0 C 28.984375 -11.28125 27.125 -23.703125 27.125 -39.03125 L 4.5625 -39.03125 C 6.359375 -36.390625 7.34375 -31.984375 7.34375 -27.328125 C 7.34375 -24.796875 7.046875 -22.15625 6.421875 -19.671875 C 4.65625 -12.734375 1.34375 -5.75 -0.78125 0 Z M -0.78125 0 "/></g></g></g><g fill="#597cff" fill-opacity="0.502"><g transform="translate(154.066924, 196.043859)"><g><path d="M 8.4375 0 L 23.703125 0 C 19.40625 -6.828125 15.640625 -14.234375 15.640625 -22.203125 C 15.640625 -25.46875 15.84375 -29.921875 20.390625 -29.921875 C 24.015625 -29.921875 28.578125 -26.96875 29.71875 -26.09375 L 29.71875 -39.03125 L 0.265625 -39.03125 L 0.265625 -26.09375 C 2.4375 -27.015625 6.828125 -29.65625 10.09375 -29.65625 C 11.75 -29.65625 13.453125 -28.78125 13.453125 -26.96875 C 13.453125 -23.1875 6.46875 -16.609375 6.46875 -7.921875 C 6.46875 -5.4375 6.984375 -2.796875 8.4375 0 Z M 8.4375 0 "/></g></g></g><g fill="#597cff" fill-opacity="0.502"><g transform="translate(184.041171, 196.043859)"><g><path d="M 34.375 -39.03125 L 21.640625 -39.03125 C 25.265625 -34.578125 26.65625 -30.546875 26.65625 -26.96875 C 26.65625 -15.640625 12.46875 -8.859375 7.765625 -8.859375 C 6.671875 -8.859375 6.0625 -9.21875 6.0625 -10.359375 C 6.0625 -14.28125 16.15625 -22.265625 16.15625 -32.203125 C 16.15625 -34.375 15.640625 -36.65625 14.4375 -39.03125 L 0.875 -39.03125 C 3.625 -31.625 4.453125 -25.265625 4.453125 -19.828125 C 4.453125 -12.421875 2.953125 -6.9375 2.953125 -3.515625 C 2.953125 -0.78125 3.875 0.625 7.40625 0.625 C 16.359375 0.625 22.875 -7.5625 25 -17.234375 L 26.140625 -17.234375 L 21.640625 0 L 34.375 0 C 31.9375 -5.84375 30.859375 -12.375 30.859375 -18.796875 C 30.859375 -25.9375 32.203125 -33.03125 34.375 -39.03125 Z M 34.375 -39.03125 "/></g></g></g><g fill="#597cff" fill-opacity="0.502"><g transform="translate(219.451166, 196.043859)"><g><path d="M 1.03125 0 L 13.765625 0 C 10.140625 -3.984375 8.546875 -9.109375 8.546875 -15.484375 C 18.53125 -15.484375 16.984375 0.515625 27.390625 0.515625 C 28.46875 0.515625 29.609375 0.359375 30.953125 0 L 30.953125 -12.890625 C 29.875 -12.78125 28.515625 -12.6875 27.171875 -12.6875 C 22.828125 -12.6875 17.90625 -13.671875 16.828125 -17.296875 C 26.1875 -18.0625 31 -23.09375 31 -29.046875 C 31 -37.6875 21.015625 -39.65625 11.390625 -39.65625 C 8.125 -39.65625 3.578125 -39.390625 1.03125 -39.03125 C 3.46875 -33.1875 4.5625 -26.65625 4.5625 -20.234375 C 4.5625 -13.09375 3.203125 -6 1.03125 0 Z M 24.171875 -29.875 C 25.46875 -29.875 26.140625 -29.296875 26.140625 -28.3125 C 26.140625 -24.484375 16.5625 -18.265625 12.84375 -18.265625 C 11.546875 -18.265625 10.8125 -18.84375 10.8125 -19.828125 C 10.8125 -23.65625 20.390625 -29.875 24.171875 -29.875 Z M 24.171875 -29.875 "/></g></g></g><g fill="#597cff" fill-opacity="0.502"><g transform="translate(251.340875, 196.043859)"><g><path d="M 1.03125 0 L 12.421875 0 C 9.0625 -5.4375 7.765625 -10.046875 7.765625 -13.921875 C 7.765625 -24.90625 18.171875 -29.875 22.515625 -29.875 C 23.546875 -29.875 24.59375 -29.609375 24.59375 -28.375 C 24.59375 -25.046875 14.5 -19.625 14.5 -9.78125 C 14.5 -6.9375 15.375 -3.671875 17.65625 0 L 37.109375 0 C 34.625 -5.90625 33.75 -11.4375 33.75 -16.875 C 33.75 -24.171875 35.359375 -31.3125 37.109375 -39.03125 L 27.59375 -39.03125 C 28 -28.578125 29.25 -18.953125 30.59375 -10.71875 C 24.53125 -11.859375 22.78125 -14.390625 22.78125 -17.4375 C 22.78125 -21.84375 26.5 -27.28125 26.5 -31.3125 C 26.5 -36.125 21.4375 -39.65625 10.046875 -39.65625 C 6 -39.65625 3.734375 -39.453125 1.03125 -39.03125 C 3.46875 -33.1875 4.5625 -26.65625 4.5625 -20.234375 C 4.5625 -13.09375 3.203125 -6 1.03125 0 Z M 1.03125 0 "/></g></g></g><g fill="#b2147c" fill-opacity="1"><g transform="translate(87.792354, 193.755771)"><g><path d="M 0.875 0 C 3.578125 0.421875 10.140625 0.625 13.203125 0.625 C 19.671875 0.625 28.375 -2.75 28.375 -12.46875 C 28.375 -21.4375 23.390625 -23.25 17.96875 -23.25 C 14.28125 -23.25 10.359375 -22.421875 7.5625 -22.421875 C 6.109375 -22.421875 3.78125 -22.671875 3.78125 -24.59375 C 3.78125 -27.171875 8.953125 -30.078125 14.234375 -30.078125 C 20.65625 -30.078125 24.375 -27.75 26.453125 -25.984375 L 26.453125 -39.03125 C 24.6875 -39.296875 21.0625 -39.65625 18.328125 -39.65625 C 11.59375 -39.65625 1.25 -38.3125 1.25 -29.34375 C 1.25 -12.375 26.65625 -14.4375 26.65625 -10.96875 C 26.65625 -9.0625 22.46875 -8.90625 21.328125 -8.90625 C 14.5 -8.90625 3.3125 -11.859375 0.875 -12.84375 Z M 0.875 0 "/></g></g></g><g fill="#b2147c" fill-opacity="1"><g transform="translate(117.04184, 193.755771)"><g><path d="M -0.78125 0 L 12.421875 0 C 9.21875 -5.171875 7.921875 -9.625 7.921875 -13.40625 C 7.921875 -24.75 19.359375 -29.875 24.015625 -29.875 C 25 -29.875 26.140625 -29.65625 26.140625 -28.46875 C 26.140625 -25.046875 14.703125 -19.46875 14.703125 -9.3125 C 14.703125 -6.578125 15.53125 -3.46875 17.65625 0 L 35.515625 0 C 28.984375 -11.28125 27.125 -23.703125 27.125 -39.03125 L 4.5625 -39.03125 C 6.359375 -36.390625 7.34375 -31.984375 7.34375 -27.328125 C 7.34375 -24.796875 7.046875 -22.15625 6.421875 -19.671875 C 4.65625 -12.734375 1.34375 -5.75 -0.78125 0 Z M -0.78125 0 "/></g></g></g><g fill="#b2147c" fill-opacity="1"><g transform="translate(151.778838, 193.755771)"><g><path d="M 8.4375 0 L 23.703125 0 C 19.40625 -6.828125 15.640625 -14.234375 15.640625 -22.203125 C 15.640625 -25.46875 15.84375 -29.921875 20.390625 -29.921875 C 24.015625 -29.921875 28.578125 -26.96875 29.71875 -26.09375 L 29.71875 -39.03125 L 0.265625 -39.03125 L 0.265625 -26.09375 C 2.4375 -27.015625 6.828125 -29.65625 10.09375 -29.65625 C 11.75 -29.65625 13.453125 -28.78125 13.453125 -26.96875 C 13.453125 -23.1875 6.46875 -16.609375 6.46875 -7.921875 C 6.46875 -5.4375 6.984375 -2.796875 8.4375 0 Z M 8.4375 0 "/></g></g></g><g fill="#b2147c" fill-opacity="1"><g transform="translate(181.753086, 193.755771)"><g><path d="M 34.375 -39.03125 L 21.640625 -39.03125 C 25.265625 -34.578125 26.65625 -30.546875 26.65625 -26.96875 C 26.65625 -15.640625 12.46875 -8.859375 7.765625 -8.859375 C 6.671875 -8.859375 6.0625 -9.21875 6.0625 -10.359375 C 6.0625 -14.28125 16.15625 -22.265625 16.15625 -32.203125 C 16.15625 -34.375 15.640625 -36.65625 14.4375 -39.03125 L 0.875 -39.03125 C 3.625 -31.625 4.453125 -25.265625 4.453125 -19.828125 C 4.453125 -12.421875 2.953125 -6.9375 2.953125 -3.515625 C 2.953125 -0.78125 3.875 0.625 7.40625 0.625 C 16.359375 0.625 22.875 -7.5625 25 -17.234375 L 26.140625 -17.234375 L 21.640625 0 L 34.375 0 C 31.9375 -5.84375 30.859375 -12.375 30.859375 -18.796875 C 30.859375 -25.9375 32.203125 -33.03125 34.375 -39.03125 Z M 34.375 -39.03125 "/></g></g></g><g fill="#b2147c" fill-opacity="1"><g transform="translate(217.16308, 193.755771)"><g><path d="M 1.03125 0 L 13.765625 0 C 10.140625 -3.984375 8.546875 -9.109375 8.546875 -15.484375 C 18.53125 -15.484375 16.984375 0.515625 27.390625 0.515625 C 28.46875 0.515625 29.609375 0.359375 30.953125 0 L 30.953125 -12.890625 C 29.875 -12.78125 28.515625 -12.6875 27.171875 -12.6875 C 22.828125 -12.6875 17.90625 -13.671875 16.828125 -17.296875 C 26.1875 -18.0625 31 -23.09375 31 -29.046875 C 31 -37.6875 21.015625 -39.65625 11.390625 -39.65625 C 8.125 -39.65625 3.578125 -39.390625 1.03125 -39.03125 C 3.46875 -33.1875 4.5625 -26.65625 4.5625 -20.234375 C 4.5625 -13.09375 3.203125 -6 1.03125 0 Z M 24.171875 -29.875 C 25.46875 -29.875 26.140625 -29.296875 26.140625 -28.3125 C 26.140625 -24.484375 16.5625 -18.265625 12.84375 -18.265625 C 11.546875 -18.265625 10.8125 -18.84375 10.8125 -19.828125 C 10.8125 -23.65625 20.390625 -29.875 24.171875 -29.875 Z M 24.171875 -29.875 "/></g></g></g><g fill="#b2147c" fill-opacity="1"><g transform="translate(249.052789, 193.755771)"><g><path d="M 1.03125 0 L 12.421875 0 C 9.0625 -5.4375 7.765625 -10.046875 7.765625 -13.921875 C 7.765625 -24.90625 18.171875 -29.875 22.515625 -29.875 C 23.546875 -29.875 24.59375 -29.609375 24.59375 -28.375 C 24.59375 -25.046875 14.5 -19.625 14.5 -9.78125 C 14.5 -6.9375 15.375 -3.671875 17.65625 0 L 37.109375 0 C 34.625 -5.90625 33.75 -11.4375 33.75 -16.875 C 33.75 -24.171875 35.359375 -31.3125 37.109375 -39.03125 L 27.59375 -39.03125 C 28 -28.578125 29.25 -18.953125 30.59375 -10.71875 C 24.53125 -11.859375 22.78125 -14.390625 22.78125 -17.4375 C 22.78125 -21.84375 26.5 -27.28125 26.5 -31.3125 C 26.5 -36.125 21.4375 -39.65625 10.046875 -39.65625 C 6 -39.65625 3.734375 -39.453125 1.03125 -39.03125 C 3.46875 -33.1875 4.5625 -26.65625 4.5625 -20.234375 C 4.5625 -13.09375 3.203125 -6 1.03125 0 Z M 1.03125 0 "/></g></g></g></svg>